<svg width="126" height="44" viewBox="0 0 126 44" fill="none" xmlns="http://www.w3.org/2000/svg">
<g id="Group">
<g id="Group_2">
<g id="Group_3">
<path id="Vector" d="M55.4503 19.2269C56.2983 19.5652 57.2317 19.7335 58.2494 19.7335C59.3322 19.7335 60.2976 19.5422 61.1462 19.1584C61.9943 18.7751 62.7183 18.275 63.3191 17.6574C63.9192 17.0403 64.3758 16.3742 64.6889 15.6597V11.8789H58.3276V14.2567H61.8508V15.1141C61.6159 15.5168 61.3289 15.8741 60.9897 16.1859C60.6505 16.4976 60.2656 16.7415 59.8351 16.9169C59.4046 17.0923 58.9349 17.1797 58.4255 17.1797C57.6036 17.1797 56.8854 16.9942 56.2722 16.6246C55.6585 16.2544 55.1823 15.7412 54.843 15.0846C54.5038 14.4286 54.3342 13.6586 54.3342 12.7752C54.3342 11.8918 54.5068 11.1768 54.8531 10.5142C55.1989 9.85112 55.6751 9.32854 56.2817 8.94531C56.8884 8.56209 57.5703 8.37018 58.327 8.37018C59.0446 8.37018 59.6939 8.52961 60.2745 8.84788C60.8551 9.16615 61.3348 9.66984 61.7132 10.3583L64.5122 9.61788C64.2116 8.81245 63.749 8.1269 63.1222 7.5618C62.496 6.99671 61.7618 6.56506 60.9203 6.26568C60.0788 5.9669 59.1816 5.8175 58.2292 5.8175C57.2116 5.8175 56.2782 5.98638 55.4301 6.32414C54.5815 6.66249 53.848 7.14315 53.2283 7.7667C52.6085 8.39026 52.1252 9.12777 51.7795 9.97866C51.4338 10.8301 51.2606 11.7619 51.2606 12.7758C51.2606 13.7897 51.4338 14.7215 51.7795 15.5723C52.1252 16.4232 52.6115 17.1608 53.2377 17.7843C53.864 18.4079 54.6011 18.8891 55.4497 19.2269H55.4503Z" fill="#F9F9F9"/>
<path id="Vector_2" d="M74.2218 5.95386H69.3282L64.3765 19.5971H67.4886L68.5235 16.6541H74.9969L76.0423 19.5971H79.1545L74.2218 5.95386ZM69.4082 14.1398L71.4031 8.46815H72.0881L74.1032 14.1398H69.4082Z" fill="#F9F9F9"/>
<path id="Vector_3" d="M88.8823 19.5971L92.2293 11.2942V19.5971H95.2632V5.95386H91.7401L87.6684 15.6798L83.5973 5.95386H80.0938V19.5971H83.1081V11.2942L86.4551 19.5971H88.8823Z" fill="#F9F9F9"/>
<path id="Vector_4" d="M107.223 17.0828H100.294V13.867H105.48V11.4891H100.294V8.46815H107.223V5.95386H97.2795V19.5971H107.223V17.0828Z" fill="#F9F9F9"/>
<path id="Vector_5" d="M116.852 14.3305C116.927 14.3057 117.006 14.285 117.078 14.2567C117.711 14.0099 118.226 13.6757 118.625 13.2529C119.023 12.8307 119.316 12.363 119.505 11.8499C119.694 11.3361 119.789 10.8136 119.789 10.2809C119.789 9.50091 119.606 8.78347 119.241 8.12685C118.875 7.47082 118.324 6.94469 117.587 6.54848C116.85 6.15226 115.926 5.95386 114.817 5.95386H108.848V19.5971H111.861V14.6269H113.831L116.716 19.5971H120.063L116.852 14.3305ZM116.491 11.2653C116.341 11.5446 116.116 11.7554 115.816 11.8983C115.515 12.0418 115.131 12.1126 114.661 12.1126H111.861V8.46815H114.661C115.365 8.46815 115.884 8.63053 116.217 8.9553C116.55 9.28066 116.716 9.72234 116.716 10.2809C116.716 10.6577 116.641 10.986 116.491 11.2653Z" fill="#F9F9F9"/>
<path id="Vector_6" d="M63.0451 25.4743C62.6798 24.8188 62.1283 24.2921 61.3912 23.8959C60.6541 23.4997 59.7307 23.3013 58.6218 23.3013H52.6519V36.9445H55.6662V31.9743H58.6218C59.4959 31.9743 60.249 31.8509 60.8824 31.6041C61.5151 31.3573 62.0305 31.0231 62.429 30.6003C62.8269 30.1781 63.1204 29.7104 63.3096 29.1973C63.4988 28.6841 63.5931 28.161 63.5931 27.6284C63.5931 26.8483 63.4104 26.1309 63.0451 25.4743ZM60.2953 28.6127C60.1452 28.892 59.9199 29.1028 59.6198 29.2457C59.3198 29.3892 58.9349 29.46 58.4652 29.46H55.6662V25.8156H58.4652C59.1697 25.8156 59.6886 25.9779 60.0213 26.3027C60.354 26.6281 60.52 27.0698 60.52 27.6284C60.52 28.0051 60.4453 28.3334 60.2953 28.6127Z" fill="#F9F9F9"/>
<path id="Vector_7" d="M77.5296 27.3065C77.1643 26.4556 76.6649 25.7216 76.0322 25.104C75.3994 24.4869 74.6552 24.0098 73.8012 23.6714C72.9461 23.3337 72.0358 23.1648 71.0704 23.1648C70.105 23.1648 69.1781 23.3337 68.33 23.6714C67.4814 24.0098 66.7378 24.4869 66.0985 25.104C65.4592 25.7216 64.957 26.4556 64.5917 27.3065C64.2258 28.158 64.0437 29.0968 64.0437 30.1231C64.0437 31.1494 64.2258 32.0882 64.5917 32.9391C64.957 33.7906 65.4592 34.5246 66.0985 35.1416C66.7378 35.7587 67.4814 36.2364 68.33 36.5742C69.1781 36.9119 70.0919 37.0808 71.0704 37.0808C72.0489 37.0808 72.9431 36.9119 73.7912 36.5742C74.6392 36.2364 75.3828 35.7587 76.0227 35.1416C76.662 34.5246 77.1643 33.7906 77.5296 32.9391C77.8949 32.0882 78.0781 31.1494 78.0781 30.1231C78.0781 29.0968 77.8949 28.158 77.5296 27.3065ZM74.5057 32.403C74.1731 33.0661 73.7093 33.5822 73.1157 33.953C72.5221 34.3232 71.8401 34.508 71.0704 34.508C70.3006 34.508 69.5831 34.3232 68.9954 33.953C68.4083 33.5822 67.9487 33.0661 67.616 32.403C67.2828 31.7404 67.1167 30.9805 67.1167 30.1231C67.1167 29.2657 67.2828 28.4892 67.616 27.8326C67.9487 27.1766 68.4083 26.6634 68.9954 26.2932C69.5831 25.923 70.2746 25.7375 71.0704 25.7375C71.8662 25.7375 72.5221 25.923 73.1157 26.2932C73.7093 26.6634 74.1731 27.1766 74.5057 27.8326C74.8384 28.4892 75.0051 29.2527 75.0051 30.1231C75.0051 30.9935 74.8384 31.7404 74.5057 32.403Z" fill="#F9F9F9"/>
<path id="Vector_8" d="M82.5015 23.3013H79.4872V36.9445H82.5015V23.3013Z" fill="#F9F9F9"/>
<path id="Vector_9" d="M93.5019 32.2082L87.9625 23.3013H84.9091V36.9445H87.9234V28.0765L93.4823 36.9445H96.5358V23.3013H93.5019V32.2082Z" fill="#F9F9F9"/>
<path id="Vector_10" d="M97.9448 25.8156H102.192V36.9445H105.207V25.8156H109.454V23.3013H97.9448V25.8156Z" fill="#F9F9F9"/>
<path id="Vector_11" d="M119.887 31.2439C119.6 30.7697 119.222 30.38 118.752 30.0747C118.283 29.7694 117.77 29.5191 117.216 29.3242C116.661 29.1293 116.116 28.9475 115.581 28.7786C115.163 28.6357 114.779 28.4928 114.427 28.3499C114.074 28.207 113.797 28.0352 113.595 27.8332C113.392 27.6319 113.291 27.3691 113.291 27.0437C113.291 26.7585 113.379 26.5046 113.555 26.2838C113.731 26.0629 113.967 25.8941 114.259 25.7771C114.553 25.6602 114.883 25.6018 115.248 25.6018C115.548 25.6148 115.842 25.6703 116.129 25.7677C116.416 25.8651 116.66 26.0145 116.863 26.2159C117.065 26.4172 117.192 26.6611 117.245 26.9469L120.024 26.3428C119.841 25.6543 119.528 25.0727 119.085 24.5985C118.641 24.1244 118.087 23.7671 117.421 23.5268C116.756 23.2865 115.999 23.166 115.151 23.166C114.185 23.166 113.333 23.319 112.596 23.6242C111.859 23.9295 111.278 24.3783 110.854 24.9694C110.43 25.5604 110.217 26.2785 110.217 27.1229C110.204 27.7984 110.328 28.3605 110.589 28.8087C110.85 29.2569 111.199 29.6242 111.637 29.91C112.074 30.1958 112.553 30.4331 113.075 30.6215C113.597 30.8099 114.12 30.9758 114.641 31.1187C115.15 31.2746 115.604 31.4305 116.002 31.5864C116.4 31.7422 116.706 31.9342 116.922 32.1615C117.137 32.3888 117.245 32.6847 117.245 33.0484C117.245 33.4901 117.069 33.8603 116.716 34.1591C116.364 34.4579 115.842 34.6073 115.15 34.6073C114.732 34.6073 114.36 34.5459 114.035 34.4219C113.709 34.2985 113.441 34.1136 113.232 33.8662C113.023 33.6194 112.88 33.3076 112.801 32.9309L110.002 33.5934C110.159 34.3339 110.478 34.9645 110.961 35.4836C111.444 36.0038 112.058 36.4 112.801 36.6728C113.545 36.9456 114.387 37.082 115.326 37.082C116.448 37.082 117.378 36.9001 118.116 36.5364C118.853 36.1727 119.405 35.6855 119.77 35.0744C120.135 34.4638 120.318 33.7753 120.318 33.0082C120.318 32.3067 120.174 31.7186 119.887 31.2445V31.2439Z" fill="#F9F9F9"/>
</g>
<g id="Group_4">
<path id="Vector_12" d="M121.485 5.95386V6.3235H122.096V8.23609H122.555V6.3235H123.166V5.95386H121.485Z" fill="#F9F9F9"/>
<path id="Vector_13" d="M125.481 5.95386L124.752 7.65092L124.023 5.95386H123.501V8.23609H123.961V6.7516L124.578 8.23609H124.926L125.54 6.7516V8.23609H126V5.95386H125.481Z" fill="#F9F9F9"/>
</g>
</g>
<path id="Vector_14" d="M0 43.1055V15.3491L15.4149 0H43.2904V27.7546L27.8737 43.1055H0ZM6.0826 18.4409V37.0489H24.7704L37.2078 24.6646V6.05662H18.52L6.0826 18.4409Z" fill="#F2CB05"/>
<path id="Vector_15" d="M24.6868 24.5814H18.6042V30.638H24.6868V24.5814Z" fill="#F2CB05"/>
<path id="Vector_16" d="M30.7694 18.5242H24.6868V24.5808H30.7694V18.5242Z" fill="#F2CB05"/>
<path id="Vector_17" d="M24.6868 12.4675H18.6042V18.5241H24.6868V12.4675Z" fill="#F2CB05"/>
<path id="Vector_18" d="M18.6036 18.5242H12.521V24.5808H18.6036V18.5242Z" fill="#F2CB05"/>
</g>
</svg>
