<svg width="13" height="7" viewBox="0 0 13 7" fill="none" xmlns="http://www.w3.org/2000/svg">
<path id="Vector" d="M11.6015 0.650873L6.63375 5.49341L1.66597 0.650873C1.57722 0.564178 1.45807 0.515642 1.33399 0.515642C1.20992 0.515642 1.09077 0.564178 1.00201 0.650873C0.959036 0.692981 0.924894 0.743241 0.901586 0.798709C0.878278 0.854178 0.866272 0.91374 0.866272 0.973907C0.866272 1.03407 0.878278 1.09364 0.901586 1.1491C0.924894 1.20457 0.959036 1.25483 1.00201 1.29694L6.28686 6.4496C6.37967 6.54006 6.50415 6.59069 6.63375 6.59069C6.76336 6.59069 6.88783 6.54006 6.98064 6.4496L12.2655 1.29794C12.3088 1.2558 12.3432 1.20541 12.3667 1.14976C12.3901 1.09411 12.4022 1.03431 12.4022 0.973907C12.4022 0.913501 12.3901 0.853707 12.3667 0.798054C12.3432 0.742401 12.3088 0.692018 12.2655 0.649878C12.1767 0.563183 12.0576 0.514648 11.9335 0.514648C11.8094 0.514648 11.6903 0.563183 11.6015 0.649878V0.650873Z" fill="#F9F9F9"/>
</svg>
